<svg width="16" height="17" viewBox="0 0 16 17" fill="none" xmlns="http://www.w3.org/2000/svg">
<path d="M8 4.50488C8.70312 4.50488 9.37109 4.71582 10.0039 5.06738C10.6367 5.41895 11.1289 5.91113 11.4805 6.54395C11.832 7.17676 12.043 7.84473 12.043 8.54785C12.043 9.28613 11.832 9.9541 11.4805 10.5869C11.1289 11.2197 10.6367 11.7119 10.0039 12.0635C9.37109 12.415 8.70312 12.5908 8 12.5908C7.26172 12.5908 6.59375 12.415 5.96094 12.0635C5.32812 11.7119 4.83594 11.2197 4.48438 10.5869C4.13281 9.9541 3.95703 9.28613 3.95703 8.54785C3.95703 7.84473 4.13281 7.17676 4.48438 6.54395C4.83594 5.91113 5.32812 5.41895 5.96094 5.06738C6.59375 4.71582 7.26172 4.50488 8 4.50488ZM8 11.1846C8.70312 11.1846 9.33594 10.9385 9.86328 10.4111C10.3555 9.91895 10.6367 9.28613 10.6367 8.54785C10.6367 7.84473 10.3555 7.21191 9.86328 6.68457C9.33594 6.19238 8.70312 5.91113 8 5.91113C7.26172 5.91113 6.62891 6.19238 6.13672 6.68457C5.60938 7.21191 5.36328 7.84473 5.36328 8.54785C5.36328 9.28613 5.60938 9.91895 6.13672 10.4111C6.62891 10.9385 7.26172 11.1846 8 11.1846ZM13.168 4.3291C13.168 4.08301 13.0625 3.87207 12.8867 3.66113C12.6758 3.48535 12.4648 3.37988 12.2188 3.37988C11.9375 3.37988 11.7266 3.48535 11.5508 3.66113C11.3398 3.87207 11.2695 4.08301 11.2695 4.3291C11.2695 4.61035 11.3398 4.82129 11.5508 4.99707C11.7266 5.20801 11.9375 5.27832 12.2188 5.27832C12.4648 5.27832 12.6758 5.20801 12.8516 4.99707C13.0273 4.82129 13.1328 4.61035 13.168 4.3291ZM15.8398 5.27832C15.8398 5.94629 15.875 7.03613 15.875 8.54785C15.875 10.0947 15.8398 11.1846 15.8047 11.8525C15.7695 12.5205 15.6641 13.083 15.5234 13.5752C15.3125 14.1729 14.9609 14.7002 14.5391 15.1221C14.1172 15.5439 13.5898 15.8604 13.0273 16.0713C12.5352 16.2471 11.9375 16.3525 11.2695 16.3877C10.6016 16.4229 9.51172 16.4229 8 16.4229C6.45312 16.4229 5.36328 16.4229 4.69531 16.3877C4.02734 16.3525 3.46484 16.2471 2.97266 16.0361C2.375 15.8604 1.84766 15.5439 1.42578 15.1221C1.00391 14.7002 0.6875 14.1729 0.476562 13.5752C0.300781 13.083 0.195312 12.5205 0.160156 11.8525C0.125 11.1846 0.125 10.0947 0.125 8.54785C0.125 7.03613 0.125 5.94629 0.160156 5.27832C0.195312 4.61035 0.300781 4.0127 0.476562 3.52051C0.6875 2.95801 1.00391 2.43066 1.42578 2.00879C1.84766 1.58691 2.375 1.23535 2.97266 1.02441C3.46484 0.883789 4.02734 0.77832 4.69531 0.743164C5.36328 0.708008 6.45312 0.672852 8 0.672852C9.51172 0.672852 10.6016 0.708008 11.2695 0.743164C11.9375 0.77832 12.5352 0.883789 13.0273 1.02441C13.5898 1.23535 14.1172 1.58691 14.5391 2.00879C14.9609 2.43066 15.3125 2.95801 15.5234 3.52051C15.6641 4.0127 15.7695 4.61035 15.8398 5.27832ZM14.1523 13.1885C14.293 12.8018 14.3633 12.1689 14.4336 11.29C14.4336 10.7979 14.4688 10.0596 14.4688 9.11035V7.98535C14.4688 7.03613 14.4336 6.29785 14.4336 5.80566C14.3633 4.92676 14.293 4.29395 14.1523 3.90723C13.8711 3.2041 13.3438 2.67676 12.6406 2.39551C12.2539 2.25488 11.6211 2.18457 10.7422 2.11426C10.2148 2.11426 9.47656 2.0791 8.5625 2.0791H7.4375C6.48828 2.0791 5.75 2.11426 5.25781 2.11426C4.37891 2.18457 3.74609 2.25488 3.35938 2.39551C2.62109 2.67676 2.12891 3.2041 1.84766 3.90723C1.70703 4.29395 1.60156 4.92676 1.56641 5.80566C1.53125 6.33301 1.53125 7.07129 1.53125 7.98535V9.11035C1.53125 10.0596 1.53125 10.7979 1.56641 11.29C1.60156 12.1689 1.70703 12.8018 1.84766 13.1885C2.12891 13.9268 2.65625 14.4189 3.35938 14.7002C3.74609 14.8408 4.37891 14.9463 5.25781 14.9814C5.75 15.0166 6.48828 15.0166 7.4375 15.0166H8.5625C9.51172 15.0166 10.25 15.0166 10.7422 14.9814C11.6211 14.9463 12.2539 14.8408 12.6406 14.7002C13.3438 14.4189 13.8711 13.8916 14.1523 13.1885Z" fill="white"/>
</svg>
