<svg width="17" height="18" viewBox="0 0 17 18" fill="none" xmlns="http://www.w3.org/2000/svg">
<path d="M10.2455 11.1127C11.1295 10.2288 11.5714 9.16741 11.5714 7.92857C11.5714 6.68973 11.1295 5.6317 10.2455 4.75446C9.3683 3.87053 8.31027 3.42857 7.07143 3.42857C5.83259 3.42857 4.77121 3.87053 3.88728 4.75446C3.01004 5.6317 2.57143 6.68973 2.57143 7.92857C2.57143 9.16741 3.01004 10.2288 3.88728 11.1127C4.77121 11.99 5.83259 12.4286 7.07143 12.4286C8.31027 12.4286 9.3683 11.99 10.2455 11.1127ZM16.7143 16.2857C16.7143 16.6339 16.5871 16.9353 16.3326 17.1897C16.0781 17.4442 15.7768 17.5714 15.4286 17.5714C15.067 17.5714 14.7656 17.4442 14.5246 17.1897L11.0792 13.7545C9.88058 14.5848 8.54464 15 7.07143 15C6.11384 15 5.19643 14.8158 4.3192 14.4475C3.44866 14.0725 2.69531 13.5703 2.05915 12.9408C1.42969 12.3047 0.927455 11.5513 0.552455 10.6808C0.184152 9.80357 0 8.88616 0 7.92857C0 6.97098 0.184152 6.05692 0.552455 5.18638C0.927455 4.30915 1.42969 3.5558 2.05915 2.92634C2.69531 2.29018 3.44866 1.78795 4.3192 1.41964C5.19643 1.04464 6.11384 0.857142 7.07143 0.857142C8.02902 0.857142 8.94308 1.04464 9.81362 1.41964C10.6908 1.78795 11.4442 2.29018 12.0737 2.92634C12.7098 3.5558 13.2121 4.30915 13.5804 5.18638C13.9554 6.05692 14.1429 6.97098 14.1429 7.92857C14.1429 9.40179 13.7277 10.7377 12.8973 11.9364L16.3426 15.3817C16.5904 15.6295 16.7143 15.9308 16.7143 16.2857Z" fill="black"/>
</svg>
