<svg width="18" height="15" viewBox="0 0 18 15" fill="none" xmlns="http://www.w3.org/2000/svg">
<path d="M16.1367 3.8916C16.8398 3.36426 17.4727 2.73145 18 1.95801C17.2969 2.27441 16.5938 2.48535 15.8906 2.55566C16.6641 2.06348 17.2266 1.39551 17.5078 0.516602C16.7695 0.938477 15.9961 1.25488 15.1523 1.39551C14.8008 1.04395 14.3789 0.762695 13.9219 0.551758C13.4648 0.34082 12.9727 0.235352 12.4453 0.235352C11.7773 0.235352 11.1797 0.411133 10.6172 0.727539C10.0547 1.0791 9.59766 1.53613 9.28125 2.09863C8.92969 2.66113 8.78906 3.29395 8.78906 3.92676C8.78906 4.20801 8.78906 4.48926 8.85938 4.77051C7.34766 4.7002 5.94141 4.34863 4.60547 3.64551C3.26953 2.97754 2.17969 2.06348 1.26562 0.90332C0.914062 1.50098 0.738281 2.13379 0.738281 2.7666C0.738281 3.39941 0.878906 3.99707 1.19531 4.52441C1.47656 5.08691 1.89844 5.50879 2.39062 5.86035C1.79297 5.86035 1.23047 5.68457 0.738281 5.36816V5.43848C0.738281 6.31738 1.01953 7.09082 1.58203 7.75879C2.14453 8.46191 2.84766 8.88379 3.69141 9.05957C3.33984 9.12988 3.02344 9.16504 2.70703 9.16504C2.49609 9.16504 2.25 9.16504 2.03906 9.12988C2.25 9.86816 2.67188 10.4658 3.30469 10.958C3.9375 11.4502 4.64062 11.6611 5.48438 11.6611C4.11328 12.7158 2.56641 13.2432 0.878906 13.2432C0.527344 13.2432 0.246094 13.2432 0 13.208C1.6875 14.333 3.58594 14.8604 5.66016 14.8604C7.80469 14.8604 9.70312 14.333 11.3906 13.208C12.9023 12.2236 14.0977 10.9229 14.9414 9.23535C15.75 7.68848 16.1719 6.03613 16.1719 4.34863C16.1719 4.1377 16.1367 3.99707 16.1367 3.8916Z" fill="white"/>
</svg>
