<svg width="21" height="15" viewBox="0 0 21 15" fill="none" xmlns="http://www.w3.org/2000/svg">
<path d="M19.7109 2.90723C19.8516 3.54004 19.9922 4.52441 20.0625 5.79004L20.0977 7.54785L20.0625 9.30566C19.9922 10.6416 19.8516 11.5908 19.7109 12.2236C19.5703 12.6455 19.3594 12.9971 19.0781 13.2783C18.7617 13.5947 18.4102 13.8057 17.9883 13.9111C17.3555 14.0869 15.9492 14.1924 13.6992 14.2627L10.5 14.2979L7.30078 14.2627C5.05078 14.1924 3.60938 14.0869 3.01172 13.9111C2.58984 13.8057 2.20312 13.5947 1.92188 13.2783C1.60547 12.9971 1.39453 12.6455 1.28906 12.2236C1.11328 11.5908 1.00781 10.6416 0.9375 9.30566L0.902344 7.54785C0.902344 7.05566 0.902344 6.45801 0.9375 5.79004C1.00781 4.52441 1.11328 3.54004 1.28906 2.90723C1.39453 2.48535 1.60547 2.13379 1.92188 1.81738C2.20312 1.53613 2.58984 1.3252 3.01172 1.18457C3.60938 1.04395 5.05078 0.90332 7.30078 0.833008L10.5 0.797852L13.6992 0.833008C15.9492 0.90332 17.3555 1.04395 17.9883 1.18457C18.4102 1.3252 18.7617 1.53613 19.0781 1.81738C19.3594 2.13379 19.5703 2.48535 19.7109 2.90723ZM8.53125 10.4307L13.5586 7.54785L8.53125 4.7002V10.4307Z" fill="white"/>
</svg>
